<svg width="40" height="40" viewBox="0 0 40 40" fill="none" xmlns="http://www.w3.org/2000/svg">
<path d="M0.0960002 37.176C0.181333 36.28 0.245333 34.9147 0.288 33.08C0.373334 31.8427 0.522667 30.8827 0.736 30.2C0.949334 29.4747 1.056 28.984 1.056 28.728C1.056 28.5573 1.07733 28.344 1.12 28.088C1.16267 27.832 1.184 27.576 1.184 27.32C1.184 27.064 1.12 26.8507 0.992 26.68C0.906667 26.5093 0.736 26.424 0.48 26.424L0.864 22.456C1.33333 21.2187 1.58933 19.576 1.632 17.528C1.67467 16.5467 1.67467 15.6293 1.632 14.776C1.58933 13.9227 1.67467 13.1547 1.888 12.472L2.08 9.656C2.89067 9.784 3.104 9.42133 2.72 8.568C2.592 8.09866 2.48533 7.75733 2.4 7.544C2.35733 7.33067 2.4 7.224 2.528 7.224C2.61333 6.75466 2.656 6.17866 2.656 5.496C2.69867 4.77066 2.76267 3.66133 2.848 2.168L4.128 1.464C4.72533 1.72 5.55733 1.95467 6.624 2.168C7.73333 2.33867 8.65067 2.46667 9.376 2.552C10.2293 2.68 10.912 2.78667 11.424 2.872C11.936 2.91466 12.2773 2.95733 12.448 3L12.96 4.152C12.7893 5.048 12.64 5.98667 12.512 6.968C12.4267 7.90667 12.3413 8.84533 12.256 9.784C12.2133 10.68 12.1493 11.5547 12.064 12.408C11.9787 13.2187 11.872 13.9227 11.744 14.52C11.5733 14.9467 11.5307 16.0773 11.616 17.912C11.6587 18.1253 11.68 18.3387 11.68 18.552C11.68 18.7653 11.68 18.9573 11.68 19.128V19.896C11.68 20.1947 11.6587 20.408 11.616 20.536C11.0187 20.8773 10.6133 21.4533 10.4 22.264C10.2293 23.032 10.208 23.9067 10.336 24.888C10.4213 25.272 10.5493 25.592 10.72 25.848C10.8907 26.0613 11.0613 26.616 11.232 27.512C11.36 27.9813 11.424 28.5147 11.424 29.112C11.4667 29.7093 11.4667 30.3067 11.424 30.904C11.424 31.5013 11.4027 32.0987 11.36 32.696C11.3173 33.2507 11.296 33.7413 11.296 34.168C10.7413 34.5947 10.4853 35.0853 10.528 35.64C10.5707 36.152 10.6347 36.6213 10.72 37.048C10.5067 37.176 10.2933 37.2827 10.08 37.368C9.99467 37.4107 9.93067 37.432 9.888 37.432C9.84533 37.432 9.80267 37.4533 9.76 37.496C9.58933 37.5813 9.44 37.6453 9.312 37.688C9.22667 37.7307 9.14133 37.7733 9.056 37.816H8.992L9.056 37.752C9.14133 37.6667 9.184 37.6027 9.184 37.56C9.056 37.6027 8.544 37.624 7.648 37.624H3.744C3.31733 37.6667 2.848 37.7093 2.336 37.752C1.824 37.7947 1.376 37.8587 0.992 37.944L0.0960002 37.176ZM37.664 39.864H30.048L26.784 39.032L27.04 35.96L24.672 32.568L21.408 28.216L17.312 25.016L15.264 24.632C14.9653 23.736 14.6027 22.968 14.176 22.328C14.0907 22.1573 14.0053 22.008 13.92 21.88C13.8347 21.752 13.7493 21.6453 13.664 21.56C13.536 21.304 13.3867 21.112 13.216 20.984L12.896 20.6C13.1947 20.216 13.4507 19.9813 13.664 19.896C13.8773 19.8107 14.112 19.7253 14.368 19.64C14.624 19.5547 14.9227 19.3627 15.264 19.064C15.648 18.7227 16.1813 18.104 16.864 17.208C17.248 16.6533 17.5893 16.184 17.888 15.8C18.2293 15.3733 18.5067 15.0107 18.72 14.712C18.848 14.5413 18.976 14.392 19.104 14.264C19.232 14.0933 19.3387 13.9653 19.424 13.88C19.8507 13.5387 20.64 12.792 21.792 11.64C22.9867 10.488 24.5013 8.888 26.336 6.84C27.5733 5.47467 28.6187 4.344 29.472 3.448C30.368 2.50933 31.072 1.784 31.584 1.272L33.056 0.952C33.3547 1.29333 33.6107 1.592 33.824 1.848C34.08 2.06133 34.2933 2.296 34.464 2.552C34.8053 2.38133 35.104 2.44533 35.36 2.744C35.616 3 35.808 3.27733 35.936 3.576C35.936 3.66133 36.0213 3.768 36.192 3.896C36.4053 4.024 36.5973 4.17333 36.768 4.344C36.9387 4.472 37.0667 4.64267 37.152 4.856C37.2373 5.02667 37.152 5.21867 36.896 5.432L35.744 6.584C35.5733 6.75467 35.4027 6.92533 35.232 7.096C35.104 7.224 34.9973 7.37333 34.912 7.544C34.528 7.84266 33.568 8.33333 32.032 9.016C30.4107 9.74133 29.3867 10.3387 28.96 10.808C28.7467 11.1067 28.512 11.4693 28.256 11.896C28.0427 12.3227 27.7867 12.7707 27.488 13.24C27.232 13.6667 26.9333 14.072 26.592 14.456C26.2933 14.84 25.9733 15.1173 25.632 15.288C25.5893 15.3307 25.5253 15.3733 25.44 15.416C25.3973 15.4587 25.248 15.608 24.992 15.864C24.9493 15.8213 24.8853 15.7787 24.8 15.736C24.7573 15.6933 24.6933 15.6293 24.608 15.544C24.5653 15.5013 24.5227 15.48 24.48 15.48C24.4373 15.4373 24.3947 15.3947 24.352 15.352C24.2667 15.5653 24.1173 15.6933 23.904 15.736C23.8187 15.7787 23.6693 15.8 23.456 15.8C22.944 16.184 22.6667 16.632 22.624 17.144C22.624 17.6133 22.7307 18.0187 22.944 18.36C22.9867 18.4027 22.7947 18.6373 22.368 19.064C21.984 19.4907 21.6427 19.9173 21.344 20.344L23.2 21.304L26.336 25.272L32.864 31.672L37.664 36.472L39.264 37.368L39.2 38.52L37.664 39.864ZM8.928 37.88L8.992 37.816L8.928 37.88Z" fill="url(#paint0_linear_1_2)"/>
<defs>
<linearGradient id="paint0_linear_1_2" x1="20" y1="-8" x2="20" y2="45" gradientUnits="userSpaceOnUse">
<stop stop-color="#3F51B0"/>
<stop offset="1" stop-opacity="0"/>
</linearGradient>
</defs>
</svg>
